<?xml version="1.0" encoding="utf-8" ?>
<svg xmlns="http://www.w3.org/2000/svg" xmlns:xlink="http://www.w3.org/1999/xlink" width="1024" height="1024">
	<path fill="white" d="M0 0L1024 0L1024 1024L0 1024L0 0Z"/>
	<path d="M463.853 6.72988C493.737 5.85103 715.659 7.59411 723.58 17.5215C724.744 18.9811 725.165 21.8983 725.359 23.7039C725.953 29.2102 725.732 35.031 725.94 40.5867C726.298 50.1737 728.132 69.8889 726.556 78.2652C732.148 90.3043 736.061 102.924 740.87 115.269C758.749 161.169 775.447 207.789 784.316 256.371C793.195 305.002 794.522 354.293 797.549 403.504Q804.127 515.272 812.224 626.941C813.561 643.47 816.391 659.857 818.695 676.269L832.142 771.644C834.155 785.863 835.878 800.087 837.631 814.337C839.158 826.747 840.835 839.234 841.495 851.725C841.992 861.117 841.235 870.561 840.831 879.949L838.856 923.691Q839.963 924.662 841.023 925.684C843.106 927.706 844.132 930.057 844.92 932.824C846.418 938.087 846.621 944.082 847.369 949.507C848.583 958.306 850.567 967.393 850.655 976.271C850.693 980.04 850.091 984.482 847.172 987.186C842.301 991.7 823.929 993.888 817.218 995.122Q778.632 1001.9 739.76 1006.77Q700.888 1011.64 661.823 1014.6Q644.052 1016.05 626.251 1017.06C619.23 1017.48 612.123 1018.16 605.087 1017.95C603.89 1017.27 602.676 1016.58 601.622 1015.68C599.333 1013.73 597.932 1011.36 597.049 1008.51C595.468 1003.4 595.692 997.133 595.071 991.794C594.029 982.831 592.263 973.881 591.799 964.858C591.387 956.859 592.798 959.559 595.91 954.498C596.559 953.442 596.011 950.577 595.854 949.344C593.729 932.7 590.764 916.13 588.428 899.508Q575.736 807.513 561.351 715.768L537.543 553.81C531.989 518.182 525.406 482.715 519.677 447.12C517.066 432.518 515.522 415.888 511.521 401.767L456.449 759.693Q445.487 832.279 436.176 905.095C434.104 921.707 431.153 938.341 429.785 955.018C431.957 957.462 432.774 958.531 432.689 961.841C432.482 969.868 428.375 1003.74 425.908 1010.72Q425.639 1011.49 425.274 1012.23Q424.908 1012.96 424.452 1013.64Q423.996 1014.32 423.457 1014.94Q422.918 1015.56 422.304 1016.1C421.17 1017.09 419.844 1017.9 418.348 1018.19C410.404 1019.73 376.762 1016.24 366.935 1015.47Q327.69 1012.52 288.646 1007.57Q249.603 1002.63 210.863 995.689C203.936 994.461 181.348 992.23 177.082 986.956C175.24 984.679 174.389 981.925 174.102 979.044C173.444 972.423 174.886 964.773 175.323 958.081C175.804 950.724 175.734 943.312 176.433 935.975C176.953 930.526 178.253 926.919 182.538 923.375C182.622 913.935 182.042 904.486 181.751 895.052C181.386 883.222 180.723 871.204 181.211 859.378C181.913 842.382 184.33 825.203 186.356 808.312Q193.199 754.641 201.577 701.188C205.522 675.564 209.864 650.168 212.202 624.321C219.075 548.357 220.738 471.918 225.349 395.79C228.474 344.196 232.565 289.42 243.105 238.81Q246.226 224.367 249.987 210.077Q253.747 195.787 258.14 181.678Q262.533 167.569 267.549 153.67Q272.565 139.771 278.195 126.109Q284.046 111.625 290.468 97.3843C293.248 91.1811 297.054 84.527 298.649 77.9325C301.51 66.1095 297.264 22.9207 304.276 16.3071C306.34 14.36 311.067 13.5782 313.868 13.153C327.686 11.055 342.313 10.784 356.287 10.0147C392.053 8.0455 428.039 7.56649 463.853 6.72988Z"/>
	<path fill="white" d="M401.675 41.9413C406.169 42.2156 410.632 42.5415 415.11 43.029C411.811 65.0296 410.885 87.4533 406.993 109.343C403.255 110.091 398.157 108.864 394.43 108.341Q396.984 87.304 398.965 66.2053C399.774 58.1362 400.335 49.9394 401.675 41.9413Z"/>
	<path fill="white" d="M617.886 42.7215C618.778 42.6254 619.316 42.6575 620.185 42.7831C621.686 47.1114 621.657 53.0155 622.173 57.6552C624.088 74.8495 625.939 92.0575 626.652 109.351Q620.831 109.456 615.012 109.653L614.379 109.725C613.1 108.233 608.302 50.9442 606.861 43.4308C610.489 42.9833 614.232 42.9269 617.886 42.7215Z"/>
	<path fill="white" d="M594.54 44.7078C596.159 44.4922 597.89 44.5262 599.524 44.4511C601.919 61.4148 603.737 78.9992 604.622 96.1004C595.166 97.3738 585.404 98.0812 575.878 98.6221L565.488 99.4681Q565.339 73.0678 565.569 46.6673C575.225 46.3145 584.901 45.4019 594.54 44.7078Z"/>
	<path fill="white" d="M550.502 47.7117C552.868 47.4517 555.323 47.4899 557.704 47.4048Q557.504 73.6722 557.608 99.9399C541.209 100.909 524.96 101.242 508.536 101.122L501.852 101.073C501.461 83.9157 501.659 66.7004 501.588 49.536C517.869 49.5556 534.253 48.6643 550.502 47.7117Z"/>
	<path d="M514.133 69.5762C519.365 69.6492 545.726 70.0782 548.538 72.3417C549.586 73.1853 549.52 73.7536 549.557 74.9647C548.877 76.453 548.13 77.1414 546.867 78.1634C541.624 78.554 516.25 78.5217 513.23 75.9675C512.279 75.1634 511.866 74.3883 512.007 73.1117C512.173 71.5897 513.124 70.6112 514.133 69.5762Z"/>
	<path fill="white" d="M422.967 44.3756C433.788 44.3832 445.093 46.3732 455.943 47.2003C468.619 48.1667 481.328 48.1418 494.007 49.394L493.907 100.509L487.594 100.457Q452.255 98.1424 417.032 94.4599C418.773 77.7236 420.473 61.021 422.967 44.3756Z"/>
	<path fill="white" d="M310.557 30.3414C338.505 33.4006 366.216 38.302 394.228 41.1481C392.329 56.4158 390.387 71.8026 389.377 87.1554L388.799 89.6833C381.488 89.9269 373.027 87.9045 365.741 86.9104C346.793 84.3248 327.785 81.7946 308.992 78.227C309.013 62.4508 309.065 46.0331 310.557 30.3414Z"/>
	<path fill="white" d="M712.948 31.2255C714.305 33.5987 714.965 71.8265 714.988 77.2048C706.183 79.2777 638.178 92.0294 633.78 90.7319L633.215 89.1815C632.292 73.402 629.198 57.7459 627.879 42.0019C639.539 40.111 651.648 39.3972 663.413 38.0586C679.999 36.1714 696.448 33.7368 712.948 31.2255Z"/>
	<path fill="white" d="M488.985 20.2444Q587.41 19.4546 685.681 24.999C665.82 27.7412 645.706 30.3299 625.737 32.1257C595.249 34.8676 564.677 36.4175 534.139 38.411C520.607 38.8346 507.124 39.3125 493.579 38.9595C468.993 38.3186 444.24 35.9976 419.732 33.9113C392.681 31.6084 365.159 29.1174 338.36 24.7173C350.306 22.553 370.909 22.6884 383.487 22.2526Q436.223 20.579 488.985 20.2444Z"/>
	<path fill="white" d="M555.409 107.71C555.639 108.119 555.731 108.228 555.843 108.75C556.861 113.502 556.436 134.711 556.565 140.459Q557.429 177.906 557.653 215.362C557.819 227.042 559.173 244.288 557.613 255.312Q557.387 256.806 557.066 258.282Q556.746 259.759 556.332 261.212Q555.919 262.665 555.415 264.089Q554.91 265.513 554.317 266.902Q553.723 268.292 553.043 269.641Q552.363 270.99 551.598 272.293Q550.834 273.596 549.989 274.848Q549.144 276.101 548.221 277.297C539.117 289.008 527.109 292.357 513.043 294.184C512.234 293.306 512.203 292.438 512.146 291.277C511.162 271.501 512.046 251.368 511.945 231.551L510.77 108.656C525.706 108.824 540.493 108.584 555.409 107.71Z"/>
	<path fill="white" d="M309.079 86.4487C317.05 87.0185 325.107 88.6301 333.024 89.7732C351.283 92.4098 369.544 95.2538 387.915 96.9772C387.599 100.651 385.398 109.22 387.355 112.17C389.345 115.17 395.543 115.177 398.823 115.636C395.792 120.313 393.196 125.246 390.248 129.975C378.238 149.243 363.914 168.195 343.749 179.464C320.193 193.08 294.342 193.923 267.963 193.517C277.25 157.492 293.757 120.437 309.079 86.4487Z"/>
	<path fill="white" d="M714.214 85.673L715.262 85.5445C715.589 85.7739 715.999 85.9166 716.243 86.2328C718.059 88.5866 721.814 100.677 723.243 104.439C734.47 134 746.644 163.736 755.439 194.134C728.681 193.146 700.804 190.223 676.398 178.572C656.14 168.005 642.851 152.503 630.109 133.989C626.078 128.131 621.89 122.237 618.632 115.903C620.613 115.635 622.524 115.59 624.515 115.577C627.131 115.56 631.715 115.88 633.53 113.571C635.866 110.599 634.403 102.349 634.176 98.6563C660.932 95.9044 687.691 90.1748 714.214 85.673Z"/>
	<path fill="white" d="M192.112 934.805C199.94 935.299 207.864 936.778 215.626 937.916Q237.856 941.329 260.126 944.463C313.027 951.7 366.287 958.907 419.547 962.905C419.731 974.383 416.772 993.85 414.387 1005.35C403.84 1005.05 393.253 1004.16 382.719 1003.49Q319.459 999.513 256.822 989.807C233.524 986.363 210.147 983.11 187.047 978.493C187.74 966.369 187.666 945.848 192.112 934.805Z"/>
	<path fill="white" d="M828.368 934.634C828.518 934.606 828.666 934.561 828.819 934.549C829.423 934.5 830.626 934.282 831.082 934.747C833.983 937.703 837.845 972.085 838.204 977.929C819.861 982.747 797.046 985.94 778.188 988.75Q722.445 997.089 666.25 1001.45C648.864 1002.85 631.459 1003.74 614.062 1004.93L608.77 1005.21C606.068 991.447 605.031 977.064 603.853 963.099C611.389 961.944 619.208 961.657 626.809 961.001Q644.459 959.473 662.063 957.482Q724.61 950.831 786.756 941.122C800.639 938.985 814.559 937.247 828.368 934.634Z"/>
	<path fill="white" d="M598.582 104.25C601.029 103.998 603.532 104 605.991 103.907Q606.284 109.751 606.663 115.59C608.164 116.295 609.613 116.954 610.718 118.234C614.687 122.834 617.519 128.788 620.797 133.911C625.809 141.745 631.541 149.444 637.57 156.532C672.223 197.275 709.82 198.092 758.256 201.986C760.981 209.203 762.802 216.954 764.801 224.411C776.786 269.115 779.93 315.059 782.709 361.042L787.261 438.865C788.69 465.581 790.94 492.246 792.536 518.951C794.637 554.102 796.151 589.388 799.183 624.475C800.897 644.318 804.238 664.014 807.146 683.705L818.106 763.01C822.26 792.13 826.949 821.412 828.44 850.823C829.055 862.961 828.321 875.195 827.806 887.327Q827.078 907.265 825.889 927.181Q776.762 935.216 727.383 941.524C714.637 943.54 701.73 944.851 688.912 946.355L608.386 955.166C605.783 932.196 602.123 909.369 598.851 886.491Q590.442 825.415 581.154 764.465Q565.27 651.289 547.355 538.416L526.303 411.877C520.064 375.289 511.561 337.955 512.145 300.661Q513.919 300.589 515.694 300.55C529.232 300.207 541.346 295.221 550.693 285.292C557.546 278.013 562.831 268.149 564.771 258.317C567.081 246.608 565.623 220.261 565.44 206.849Q565.086 157.14 563.522 107.454C574.825 105.465 587.105 105.222 598.582 104.25Z"/>
	<path d="M582.552 470.304C583.499 470.629 585.006 471.054 585.649 471.843C587.939 474.655 601.07 518.601 603.189 525.48Q651.485 678.052 691.459 833.013C692.716 837.941 698.257 855.435 697.736 859.524C697.497 861.405 696.386 861.977 694.965 862.955C693.261 862.93 692.06 862.682 690.775 861.516C688.119 856.239 684.746 838.352 683.009 831.253Q677.699 809.714 671.735 788.346Q644.277 685.721 613.256 584.115L596.205 528.866C593.291 519.618 579.22 479.642 579.513 473.336C580.104 471.755 581.212 471.189 582.552 470.304Z"/>
	<path fill="white" d="M415.808 101.734C424.376 103.025 433.241 103.575 441.875 104.381Q472.507 107.338 503.258 108.51C503.555 121.907 503.411 135.331 503.57 148.733Q504.509 225.47 504.444 302.212Q504.513 316.018 505.901 329.754C506.568 336.256 508.031 343.207 507.658 349.738C507.259 356.736 505.212 364.017 504.047 370.964Q499.696 398.515 494.243 425.87C491.743 438.81 489.914 451.871 487.833 464.882C485.511 479.398 483.002 493.892 480.82 508.429Q446.464 731.398 417.129 955.083C377.783 950.407 338.416 946.783 299.119 941.588Q267.626 938.077 236.317 933.184C222.775 931.148 208.98 928.435 195.34 927.337C196.557 919.463 195.626 910.737 195.409 902.768C194.91 884.398 193.667 865.865 195.306 847.534Q198.299 816.657 202.67 785.944Q207.821 747.288 213.631 708.725C217.45 684.15 222.218 659.532 224.45 634.747C232.435 546.082 233.65 456.928 240.16 368.16C243.473 322.985 247.558 277.628 257.234 233.306C259.59 222.515 261.916 211.447 265.439 200.968C284.072 201.175 302.547 201.339 320.752 196.691C353.053 188.443 375.493 167.259 393.005 139.727C397.8 132.187 401.862 124.231 406.427 116.557C407.949 116.413 409.913 116.39 411.321 115.843C415.197 114.336 414.484 105.913 415.602 102.37L415.808 101.734Z"/>
	<path d="M438.929 469.974C440.557 470.386 442.047 470.956 442.917 472.51C444.337 475.049 436.575 496.173 435.395 499.796L416.357 556.703Q382.77 656.696 354.407 758.294C348.359 780.396 342.83 802.86 337.812 825.218C335.108 837.265 332.93 849.492 329.985 861.474C329.523 863.354 328.511 863.889 326.957 864.807C325.57 864.438 324.039 863.872 323.283 862.548C322.308 860.84 322.555 858.086 322.885 856.233C323.625 852.078 324.9 848.002 325.73 843.857C332.598 809.547 341.579 775.573 350.94 741.869Q361.815 703.474 373.159 665.216Q391.574 606.82 410.973 548.744L427.664 497.475C430.372 489.411 432.779 480.748 436.274 473.005C436.93 471.553 437.63 470.868 438.929 469.974Z"/>
</svg>
