<svg width="503" height="309" viewBox="0 0 503 309" fill="none" xmlns="http://www.w3.org/2000/svg">
<path d="M496.034 305.53C480.332 276.269 478.354 251.157 480.557 228.962C481.623 218.226 483.667 208.172 485.593 198.702C485.743 197.965 485.892 197.231 486.04 196.501C488.017 186.742 489.769 177.626 490.118 168.926L155.076 159.687C153.76 231.848 226.642 292.59 318.973 295.136C330.507 295.454 341.835 292.286 353.854 288.322C356.026 287.606 358.221 286.863 360.443 286.112C370.473 282.719 381.048 279.142 392.529 276.952C419.94 271.723 452.484 274.396 496.034 305.53Z" fill="#EA051C" stroke="#EA051C" stroke-width="2"/>
<path d="M157.124 143.609L492.167 152.848C493.483 80.6872 420.601 19.9452 328.27 17.3991C235.939 14.8531 159.805 71.486 157.124 143.609Z" fill="#0F8012" stroke="#0F8012" stroke-width="2"/>
<path d="M258.851 98.9174C258.851 152.557 203.481 196.535 134.493 196.535C125.997 196.535 117.702 193.976 108.832 190.781C107.237 190.207 105.622 189.611 103.986 189.007C96.581 186.276 88.7329 183.381 80.1833 181.507C60.107 177.106 36.2005 178.327 3.96661 199.456C15.3269 178.735 17.1744 160.625 16.0219 144.493C15.4474 136.452 14.1271 128.902 12.8887 121.82C12.7919 121.267 12.6957 120.717 12.6003 120.169C11.2789 112.581 10.1345 105.565 10.1345 98.9174C10.1345 45.2775 65.5046 1.3 134.493 1.3C203.481 1.3 258.851 45.2775 258.851 98.9174Z" fill="white" stroke="#0F8012" stroke-width="2.6"/>
<path d="M58.5744 111.373C58.3747 111.373 58.2112 111.309 58.0841 111.18C57.9751 111.051 57.9207 110.886 57.9207 110.684V92.7512C57.9207 92.5489 57.9842 92.3834 58.1113 92.2546C58.2385 92.1259 58.4019 92.0615 58.6017 92.0615H61.0532C61.253 92.0615 61.4074 92.1259 61.5163 92.2546C61.6434 92.3834 61.707 92.5489 61.707 92.7512V105.414L70.6689 92.5029C70.8687 92.2087 71.132 92.0615 71.4589 92.0615H73.7198C73.9196 92.0615 74.0739 92.1259 74.1829 92.2546C74.31 92.3834 74.3736 92.5489 74.3736 92.7512V110.711C74.3736 110.895 74.31 111.051 74.1829 111.18C74.0739 111.309 73.9196 111.373 73.7198 111.373H71.2682C71.0685 111.373 70.905 111.318 70.7779 111.208C70.6508 111.079 70.5872 110.913 70.5872 110.711V98.2965L61.6525 110.932C61.5436 111.079 61.4346 111.189 61.3256 111.263C61.2167 111.336 61.0623 111.373 60.8626 111.373H58.5744Z" fill="#0F8012"/>
<path d="M84.4187 111.649C82.4211 111.649 80.823 111.088 79.6245 109.966C78.4441 108.844 77.8176 107.29 77.7449 105.304L77.7177 104.2L77.7449 103.097C77.8176 101.11 78.4441 99.5563 79.6245 98.4344C80.823 97.3125 82.4211 96.7515 84.4187 96.7515C85.8352 96.7515 87.0337 97.009 88.0144 97.524C89.0132 98.039 89.7487 98.6735 90.2208 99.4276C90.7111 100.163 90.9745 100.862 91.0108 101.524C91.0289 101.708 90.9654 101.865 90.8201 101.993C90.693 102.122 90.5386 102.186 90.357 102.186H87.9599C87.7783 102.186 87.633 102.15 87.5241 102.076C87.4333 101.984 87.3425 101.837 87.2517 101.635C86.9793 100.917 86.6161 100.402 86.1621 100.09C85.7262 99.777 85.1633 99.6207 84.4732 99.6207C83.547 99.6207 82.8206 99.9242 82.294 100.531C81.7674 101.12 81.4859 102.021 81.4496 103.235L81.4223 104.255L81.4496 105.166C81.5222 107.575 82.5301 108.78 84.4732 108.78C85.1814 108.78 85.7535 108.624 86.1893 108.311C86.6251 107.998 86.9793 107.483 87.2517 106.766C87.3425 106.564 87.4333 106.426 87.5241 106.352C87.633 106.26 87.7783 106.214 87.9599 106.214H90.357C90.5386 106.214 90.693 106.279 90.8201 106.407C90.9654 106.536 91.0289 106.692 91.0108 106.876C90.9745 107.52 90.7202 108.21 90.2481 108.945C89.7759 109.681 89.0495 110.316 88.0689 110.849C87.0882 111.382 85.8715 111.649 84.4187 111.649Z" fill="#0F8012"/>
<path d="M99.8716 96.7515C101.887 96.7515 103.485 97.3493 104.666 98.5447C105.864 99.7218 106.5 101.386 106.573 103.538C106.591 103.649 106.6 103.878 106.6 104.228C106.6 104.577 106.591 104.807 106.573 104.918C106.482 107.014 105.837 108.66 104.639 109.856C103.458 111.051 101.869 111.649 99.8716 111.649C97.7287 111.649 96.0671 110.987 94.8867 109.663C93.7245 108.339 93.1434 106.573 93.1434 104.366V103.787C93.1434 103.603 93.2069 103.446 93.334 103.318C93.4612 103.189 93.6246 103.124 93.8244 103.124H102.868V102.904C102.832 101.892 102.55 101.046 102.024 100.366C101.515 99.6667 100.807 99.3172 99.8989 99.3172C98.8274 99.3172 97.9648 99.7402 97.3111 100.586C97.1476 100.789 97.0114 100.917 96.9025 100.973C96.8117 101.028 96.6664 101.055 96.4666 101.055H94.124C93.9606 101.055 93.8153 101.009 93.6882 100.917C93.5792 100.807 93.5247 100.678 93.5247 100.531C93.5247 100.09 93.779 99.5747 94.2874 98.9862C94.8141 98.3792 95.5586 97.855 96.5211 97.4136C97.4836 96.9722 98.6004 96.7515 99.8716 96.7515ZM96.848 105.442V105.525C96.848 106.61 97.1113 107.483 97.6379 108.145C98.1827 108.808 98.9273 109.139 99.8716 109.139C100.816 109.139 101.551 108.808 102.078 108.145C102.605 107.483 102.868 106.61 102.868 105.525V105.442H96.848Z" fill="#0F8012"/>
<path d="M110.227 111.373C110.045 111.373 109.891 111.309 109.764 111.18C109.637 111.051 109.573 110.895 109.573 110.711V97.6895C109.573 97.5056 109.637 97.3493 109.764 97.2205C109.891 97.0918 110.045 97.0274 110.227 97.0274H112.488C112.688 97.0274 112.842 97.0918 112.951 97.2205C113.078 97.3309 113.142 97.4872 113.142 97.6895V102.628H119.298V97.6895C119.298 97.4872 119.361 97.3309 119.488 97.2205C119.616 97.0918 119.77 97.0274 119.951 97.0274H122.212C122.412 97.0274 122.567 97.0918 122.675 97.2205C122.803 97.3309 122.866 97.4872 122.866 97.6895V110.711C122.866 110.895 122.803 111.051 122.675 111.18C122.567 111.309 122.412 111.373 122.212 111.373H119.951C119.77 111.373 119.616 111.309 119.488 111.18C119.361 111.051 119.298 110.895 119.298 110.711V105.525H113.142V110.711C113.142 110.895 113.078 111.051 112.951 111.18C112.842 111.309 112.688 111.373 112.488 111.373H110.227Z" fill="#0F8012"/>
<path d="M141.445 97.0274C141.59 97.0274 141.717 97.0826 141.826 97.1929C141.954 97.3033 142.017 97.4228 142.017 97.5516V110.794C142.017 110.959 141.963 111.097 141.854 111.208C141.745 111.318 141.599 111.373 141.418 111.373H139.075C138.894 111.373 138.748 111.318 138.639 111.208C138.549 111.097 138.503 110.959 138.503 110.794V103.069L135.588 108.504C135.461 108.725 135.334 108.89 135.207 109.001C135.098 109.111 134.935 109.166 134.717 109.166H133.818C133.618 109.166 133.455 109.111 133.328 109.001C133.2 108.89 133.082 108.725 132.973 108.504L130.059 103.18V110.794C130.059 110.959 130.004 111.097 129.895 111.208C129.786 111.318 129.65 111.373 129.487 111.373H127.144C126.963 111.373 126.817 111.318 126.708 111.208C126.599 111.097 126.545 110.959 126.545 110.794V97.5516C126.545 97.4228 126.599 97.3033 126.708 97.1929C126.817 97.0826 126.944 97.0274 127.09 97.0274H129.378C129.686 97.0274 129.923 97.1837 130.086 97.4964L134.281 105.221L138.476 97.4964C138.639 97.1837 138.875 97.0274 139.184 97.0274H141.445Z" fill="#0F8012"/>
<path d="M151.8 111.649C149.784 111.649 148.177 111.061 146.978 109.883C145.798 108.688 145.171 107.014 145.099 104.862L145.071 104.173L145.099 103.483C145.189 101.386 145.825 99.7402 147.005 98.5447C148.204 97.3493 149.802 96.7515 151.8 96.7515C153.942 96.7515 155.595 97.4136 156.757 98.7379C157.938 100.062 158.528 101.828 158.528 104.035V104.614C158.528 104.798 158.464 104.954 158.337 105.083C158.21 105.212 158.047 105.276 157.847 105.276H148.803V105.497C148.84 106.509 149.112 107.364 149.62 108.063C150.147 108.743 150.864 109.083 151.772 109.083C152.844 109.083 153.706 108.66 154.36 107.814C154.524 107.612 154.651 107.483 154.742 107.428C154.851 107.373 155.005 107.345 155.205 107.345H157.547C157.711 107.345 157.847 107.401 157.956 107.511C158.083 107.603 158.147 107.722 158.147 107.87C158.147 108.311 157.883 108.835 157.357 109.442C156.848 110.031 156.113 110.546 155.15 110.987C154.188 111.428 153.071 111.649 151.8 111.649ZM154.823 102.959V102.876C154.823 101.791 154.551 100.917 154.006 100.255C153.479 99.5931 152.744 99.262 151.8 99.262C150.855 99.262 150.12 99.5931 149.593 100.255C149.067 100.917 148.803 101.791 148.803 102.876V102.959H154.823Z" fill="#0F8012"/>
<path d="M167.548 111.649C165.551 111.649 163.953 111.088 162.754 109.966C161.574 108.844 160.947 107.29 160.875 105.304L160.847 104.2L160.875 103.097C160.947 101.11 161.574 99.5563 162.754 98.4344C163.953 97.3125 165.551 96.7515 167.548 96.7515C168.965 96.7515 170.163 97.009 171.144 97.524C172.143 98.039 172.878 98.6735 173.35 99.4276C173.841 100.163 174.104 100.862 174.14 101.524C174.159 101.708 174.095 101.865 173.95 101.993C173.823 102.122 173.668 102.186 173.487 102.186H171.09C170.908 102.186 170.763 102.15 170.654 102.076C170.563 101.984 170.472 101.837 170.381 101.635C170.109 100.917 169.746 100.402 169.292 100.09C168.856 99.777 168.293 99.6207 167.603 99.6207C166.677 99.6207 165.95 99.9242 165.424 100.531C164.897 101.12 164.616 102.021 164.579 103.235L164.552 104.255L164.579 105.166C164.652 107.575 165.66 108.78 167.603 108.78C168.311 108.78 168.883 108.624 169.319 108.311C169.755 107.998 170.109 107.483 170.381 106.766C170.472 106.564 170.563 106.426 170.654 106.352C170.763 106.26 170.908 106.214 171.09 106.214H173.487C173.668 106.214 173.823 106.279 173.95 106.407C174.095 106.536 174.159 106.692 174.14 106.876C174.104 107.52 173.85 108.21 173.378 108.945C172.906 109.681 172.179 110.316 171.199 110.849C170.218 111.382 169.001 111.649 167.548 111.649Z" fill="#0F8012"/>
<path d="M183.083 111.649C181.067 111.649 179.46 111.061 178.262 109.883C177.081 108.688 176.455 107.014 176.382 104.862L176.355 104.173L176.382 103.483C176.473 101.386 177.108 99.7402 178.289 98.5447C179.487 97.3493 181.085 96.7515 183.083 96.7515C185.226 96.7515 186.878 97.4136 188.041 98.7379C189.221 100.062 189.811 101.828 189.811 104.035V104.614C189.811 104.798 189.748 104.954 189.621 105.083C189.493 105.212 189.33 105.276 189.13 105.276H180.087V105.497C180.123 106.509 180.395 107.364 180.904 108.063C181.43 108.743 182.148 109.083 183.056 109.083C184.127 109.083 184.99 108.66 185.644 107.814C185.807 107.612 185.934 107.483 186.025 107.428C186.134 107.373 186.288 107.345 186.488 107.345H188.831C188.994 107.345 189.13 107.401 189.239 107.511C189.366 107.603 189.43 107.722 189.43 107.87C189.43 108.311 189.167 108.835 188.64 109.442C188.131 110.031 187.396 110.546 186.433 110.987C185.471 111.428 184.354 111.649 183.083 111.649ZM186.107 102.959V102.876C186.107 101.791 185.834 100.917 185.289 100.255C184.763 99.5931 184.027 99.262 183.083 99.262C182.139 99.262 181.403 99.5931 180.877 100.255C180.35 100.917 180.087 101.791 180.087 102.876V102.959H186.107Z" fill="#0F8012"/>
<path d="M198.151 111.649C196.698 111.649 195.518 111.438 194.61 111.015C193.72 110.573 193.066 110.04 192.648 109.414C192.249 108.789 192.031 108.173 191.994 107.566V107.483C191.994 107.355 192.04 107.253 192.131 107.18C192.24 107.088 192.358 107.042 192.485 107.042H194.718C194.9 107.042 195.036 107.079 195.127 107.152C195.236 107.226 195.327 107.345 195.399 107.511C195.581 108.044 195.908 108.431 196.38 108.67C196.87 108.89 197.506 109.001 198.287 109.001C199.086 109.001 199.722 108.844 200.194 108.532C200.666 108.219 200.902 107.741 200.902 107.097C200.902 105.846 200.166 105.221 198.695 105.221H197.197C197.016 105.221 196.87 105.166 196.761 105.056C196.652 104.945 196.598 104.798 196.598 104.614V103.455C196.598 103.29 196.652 103.152 196.761 103.042C196.87 102.913 197.016 102.849 197.197 102.849H198.587C199.24 102.849 199.731 102.729 200.057 102.49C200.384 102.232 200.548 101.837 200.548 101.304C200.548 100.77 200.357 100.329 199.976 99.9793C199.594 99.6115 198.977 99.4276 198.123 99.4276C197.306 99.4276 196.716 99.5563 196.353 99.8138C195.99 100.071 195.708 100.494 195.508 101.083C195.418 101.248 195.318 101.368 195.209 101.442C195.118 101.515 194.982 101.552 194.8 101.552H192.648C192.503 101.552 192.376 101.506 192.267 101.414C192.158 101.304 192.113 101.175 192.131 101.028C192.167 100.292 192.394 99.6023 192.812 98.9586C193.247 98.3148 193.91 97.7907 194.8 97.386C195.69 96.963 196.807 96.7515 198.151 96.7515C200.148 96.7515 201.619 97.1469 202.564 97.9378C203.526 98.7287 204.007 99.6851 204.007 100.807C204.007 101.524 203.871 102.122 203.599 102.6C203.344 103.078 202.909 103.474 202.291 103.787C203.744 104.357 204.47 105.561 204.47 107.401C204.47 108.725 203.889 109.764 202.727 110.518C201.583 111.272 200.057 111.649 198.151 111.649Z" fill="#0F8012"/>
<path d="M208.016 106.021C207.834 106.021 207.68 105.957 207.553 105.828C207.426 105.699 207.362 105.543 207.362 105.359V92.7236C207.362 92.5397 207.426 92.3834 207.553 92.2546C207.68 92.1259 207.834 92.0615 208.016 92.0615H210.222C210.422 92.0615 210.576 92.1259 210.685 92.2546C210.812 92.365 210.876 92.5213 210.876 92.7236V105.359C210.876 105.543 210.812 105.699 210.685 105.828C210.576 105.957 210.422 106.021 210.222 106.021H208.016ZM207.852 111.373C207.671 111.373 207.516 111.309 207.389 111.18C207.262 111.051 207.199 110.895 207.199 110.711V108.145C207.199 107.943 207.262 107.778 207.389 107.649C207.516 107.52 207.671 107.456 207.852 107.456H210.386C210.585 107.456 210.749 107.52 210.876 107.649C211.003 107.778 211.067 107.943 211.067 108.145V110.711C211.067 110.895 211.003 111.051 210.876 111.18C210.749 111.309 210.585 111.373 210.386 111.373H207.852Z" fill="#0F8012"/>
</svg>
